<?xml version="1.0" standalone="no"?>
<!DOCTYPE svg PUBLIC "-//W3C//DTD SVG 20010904//EN"
 "http://www.w3.org/TR/2001/REC-SVG-20010904/DTD/svg10.dtd">
<svg version="1.0" xmlns="http://www.w3.org/2000/svg"
 width="112.000000pt" height="112.000000pt" viewBox="0 0 112.000000 112.000000"
 preserveAspectRatio="xMidYMid meet">
<metadata>
Created by potrace 1.14, written by Peter Selinger 2001-2017
</metadata>
<g transform="translate(0.000000,112.000000) scale(0.100000,-0.100000)"
fill="#000000" stroke="none">
<path d="M351 1094 c-40 -13 -84 -32 -99 -41 -106 -66 -185 -166 -223 -280
-27 -82 -33 -262 -12 -368 36 -177 169 -323 343 -376 75 -23 225 -30 328 -16
194 26 360 171 413 363 27 97 24 297 -5 390 -43 134 -138 246 -261 304 -85 40
-147 51 -291 49 -100 -1 -135 -5 -193 -25z"/>
</g>
</svg>
